# xmcd CD database file
# Copyright (C) 1995-1998 Ti Kan
#
# Track frame offsets:
#	150
#	14558
#	31290
#	53210
#	69213
#	84313
#	105178
#	122005
#	149918
#	168318
#	182278
#	199713
#	219615
#	242845
#	263715
#
# Disc length: 3747 seconds
#
# Revision: 1
# Processed by: cddbd v1.4b42PL1 Copyright (c) Steve Scherf et al.
# Submitted via: CDex 1.30Release
#
DISCID=ca0ea10f
DTITLE=Paul Butterfields Better days - Bearsville Anthology
DYEAR=2000
DGENRE=Blues
TTITLE0=Highway
TTITLE1=Buried Alive in the bluese
TTITLE2=New walking bluese
TTITLE3=Baby please dont go
TTITLE4=To many drivers
TTITLE5=Win or lose
TTITLE6=Take your pleasure where you find it
TTITLE7=It all comes back
TTITLE8=Aint that a lot of love
TTITLE9=The breadline
TTITLE10=Here ia go again
TTITLE11=Bread  butterfield
TTITLE12=Babu blue
TTITLE13=Slow down
TTITLE14=Done a lot of wrong things
EXTD=YEAR: 2000 ID3G:   0
EXTT0=
EXTT1=
EXTT2=
EXTT3=
EXTT4=
EXTT5=
EXTT6=
EXTT7=
EXTT8=
EXTT9=
EXTT10=
EXTT11=
EXTT12=
EXTT13=
EXTT14=
PLAYORDER=
